<?xml version="1.0" encoding="UTF-8"?>
<svg id="Layer_1" xmlns="http://www.w3.org/2000/svg" version="1.1" xmlns:xlink="http://www.w3.org/1999/xlink" viewBox="0 0 250 48">
  <!-- Generator: Adobe Illustrator 29.8.2, SVG Export Plug-In . SVG Version: 2.1.1 Build 3)  -->
  <defs>
    <style>
      .st0 {
        fill: #fff;
      }

      .st1 {
        fill: none;
      }

      .st2 {
        clip-path: url(#clippath);
      }
    </style>
    <clipPath id="clippath">
      <rect class="st1" width="250" height="48"/>
    </clipPath>
  </defs>
  <rect width="250" height="48"/>
  <rect x=".3" width="249" height="48"/>
  <polygon class="st0" points="87.9 34.5 85 34.5 85 24.2 82.7 24.2 82.7 34.5 79.8 34.5 79.8 15.2 82.7 15.2 82.7 21.5 85 21.5 85 15.2 87.9 15.2 87.9 34.5"/>
  <g class="st2">
    <path class="st0" d="M92.9,21.6v-2.1c0-.8,0-1.4.2-1.7.2-.3.5-.5.9-.5s.7.2.9.5c.2.3.3.9.3,1.7v2.1h-2.3ZM98.1,20.3c0-1.8-.3-3.2-1-4-.6-.8-1.7-1.3-3.1-1.3s-2.3.5-3,1.4c-.7.9-1,2.2-1,3.9v14.3h2.9v-10.4h2.3v10.4h2.9v-14.3Z"/>
    <path class="st0" d="M108,34.5h-2.9v-15.3c0-.6-.1-1-.3-1.3-.2-.3-.6-.4-1.1-.4h-.5v17.1h-2.9V15.2h2.3l.3.9c.3-.3.6-.5,1-.7.4-.1.8-.2,1.3-.2.9,0,1.6.3,2.2,1,.5.7.8,1.6.8,2.9v15.5Z"/>
    <path class="st0" d="M116.9,34.5h-3.3c-1.2,0-2.2-.4-2.8-1.2-.6-.8-.9-2.1-.9-3.7v-9.4c0-2,.3-3.3.8-4,.5-.7,1.5-1,3-1h2.9v2.2h-2.1c-.6,0-1.1.2-1.3.6-.2.4-.4,1-.4,2v1.7h3.5v2.6h-3.5v5c0,1.2.1,2,.4,2.5.3.5.8.7,1.5.7h2.2v2.2Z"/>
    <path class="st0" d="M125.4,29.4c0,1.8-.3,3.2-1,4.1s-1.7,1.4-3,1.4-2.1-.4-2.8-1.2c-.7-.8-1-2-1-3.6h2.7c0,.6,0,1.1.3,1.5.2.3.5.5.9.5s.7-.2.9-.5c.2-.3.3-.7.3-1.3s0-1.1-.3-1.5c-.2-.5-.4-.9-.8-1.4-.2-.3-.6-.8-1.3-1.6-.7-.8-1.1-1.3-1.2-1.4-.5-.7-.9-1.4-1.2-2.1-.2-.7-.4-1.5-.4-2.4,0-1.5.3-2.6,1-3.5.7-.9,1.6-1.3,2.7-1.3s2,.4,2.6,1.3c.6.8,1,2,1,3.5h-2.8c0-.6,0-1.1-.2-1.4-.2-.3-.4-.5-.8-.5s-.5.1-.7.4-.2.6-.2,1.1,0,.7.2,1c.2.3.4.8.9,1.3,0,0,.4.5,1.1,1.3.7.8,1.2,1.4,1.5,1.8.5.7.9,1.5,1.1,2.2.2.7.3,1.6.3,2.5"/>
    <polygon class="st0" points="133.9 17.4 131.2 17.4 131.2 34.5 128.3 34.5 128.3 17.4 125.5 17.4 125.5 15.2 133.9 15.2 133.9 17.4"/>
    <path class="st0" d="M139.8,22.7c-.2.4-.5.6-1,.6h-.9v-6h.8c.5,0,.9.2,1,.6.2.4.3,1.2.3,2.4s0,1.8-.3,2.3M144.1,32.4c-.4,0-.6,0-.8-.3-.1-.2-.2-.5-.2-.9v-4c0-.9-.2-1.6-.6-2.1-.4-.6-.9-.9-1.6-1,.7-.3,1.2-.8,1.6-1.5.3-.7.5-1.7.5-2.8s-.3-2.7-.8-3.4c-.6-.7-1.5-1.1-2.7-1.1h-4.4v19.3h2.9v-8.9h1.2c.4,0,.6.1.8.4.2.2.3.6.3,1.1v3.4c0,1.4.2,2.5.7,3.1.5.6,1.3,1,2.4,1h.7v-2.2Z"/>
    <path class="st0" d="M150.2,30.3c-.1,1.3-.5,1.9-1.1,1.9s-1-.6-1.1-1.7c-.1-1.1-.2-3-.2-5.6s0-4.1.2-5.3c.1-1.3.5-1.9,1.1-1.9s1,.6,1.1,1.9c.1,1.2.2,3,.2,5.4s0,4.1-.2,5.4M152.3,16.8c-.7-1.2-1.8-1.8-3.2-1.8s-2.5.7-3.2,2c-.7,1.3-1.1,4-1.1,7.9s.4,6.6,1.1,7.9c.7,1.4,1.8,2,3.2,2s2.5-.7,3.2-2c.7-1.4,1.1-4,1.1-7.9s-.4-6.9-1.1-8.1"/>
    <path class="st0" d="M167.2,34.5h-2.9v-16c0-.3,0-.6-.2-.8-.1-.2-.3-.3-.6-.3h-.9v17.2h-2.9v-16c0-.3,0-.6-.2-.8-.1-.2-.3-.3-.6-.3h-.9v17.2h-2.9V15.2h2.3l.3.9c.2-.3.5-.5,1-.6.5-.2.9-.2,1.3-.2s1,0,1.3.3c.4.2.6.4.8.7.3-.3.6-.6,1-.7.4-.2.8-.3,1.2-.3.9,0,1.6.3,2.1,1,.5.7.8,1.6.8,2.8v15.6Z"/>
    <rect class="st0" x="-12.8" y="14.2" width="89.5" height="21.2"/>
    <rect class="st0" x="170.6" y="13.9" width="86.3" height="21.2"/>
    <path d="M171.9,31.3c0,1.9,1.5,3.4,3.4,3.4s3.4-1.5,3.4-3.4-1.5-3.4-3.4-3.4-3.4,1.5-3.4,3.4"/>
    <path d="M68.4,18.6c0,1.9,1.5,3.4,3.4,3.4s3.4-1.5,3.4-3.4-1.5-3.4-3.4-3.4-3.4,1.5-3.4,3.4"/>
  </g>
</svg>