<?xml version="1.0" encoding="UTF-8"?>
<svg id="Layer_1" xmlns="http://www.w3.org/2000/svg" version="1.1" viewBox="0 0 184.3 203.5">
  <!-- Generator: Adobe Illustrator 29.8.2, SVG Export Plug-In . SVG Version: 2.1.1 Build 3)  -->
  <defs>
    <style>
      .st0 {
        fill: #fff;
      }

      .st1 {
        fill: #040404;
      }
    </style>
  </defs>
  <rect class="st0" x="0" width="184.3" height="203.5"/>
  <g>
    <g>
      <rect class="st1" x="27.9" y="138.9" width="31.2" height="13.7"/>
      <polygon class="st1" points="27.9 111.5 27.9 125.2 68.6 125.2 68.6 166.3 27.9 166.3 27.9 180 82.4 180 82.4 111.5 27.9 111.5"/>
    </g>
    <g>
      <rect class="st1" x="101.9" y="50.9" width="31.2" height="13.7"/>
      <polygon class="st1" points="101.9 23.5 101.9 37.2 142.6 37.2 142.6 78.3 101.9 78.3 101.9 92 156.4 92 156.4 23.5 101.9 23.5"/>
    </g>
    <polygon class="st1" points="101.9 111.5 101.9 125.2 122.3 125.2 122.3 180 136 180 136 125.2 156.4 125.2 156.4 111.5 101.9 111.5"/>
    <polygon class="st1" points="27.9 23.5 27.9 92 82.4 92 82.4 78.3 41.6 78.3 41.6 23.5 27.9 23.5"/>
  </g>
</svg>